<svg width="25" height="25" viewBox="0 0 25 25" fill="none" xmlns="http://www.w3.org/2000/svg">
<path d="M12.75 22C14.1297 22 15.2489 20.8809 15.2489 19.5H10.2512C10.2512 20.8809 11.3703 22 12.75 22ZM21.1637 16.152C20.409 15.341 18.9969 14.1211 18.9969 10.125C18.9969 7.08984 16.8688 4.66016 13.9992 4.06406V3.25C13.9992 2.55977 13.4399 2 12.75 2C12.0602 2 11.5008 2.55977 11.5008 3.25V4.06406C8.63128 4.66016 6.50315 7.08984 6.50315 10.125C6.50315 14.1211 5.09104 15.341 4.33636 16.152C4.10198 16.4039 3.99807 16.7051 4.00003 17C4.00432 17.6406 4.50706 18.25 5.25393 18.25H20.2461C20.993 18.25 21.4961 17.6406 21.5 17C21.502 16.7051 21.3981 16.4035 21.1637 16.152Z" fill="#777777"/>
<circle cx="22" cy="3" r="3" fill="#EC534A"/>
</svg>
